# xmcd
#
# Track frame offsets: 
#        150
#        22172
#        35477
#        50070
#        70100
#        86980
#        102952
#        116110
#        129297
#        150527
#        166945
#        197282
#        212412
#        227475
#        246720
#        270555
#
# Disc length: 3949 seconds
#
# Revision: 1
# Processed by: cddbd v1.5.2PL0 Copyright (c) Steve Scherf et al.
# Submitted via: ExactAudioCopy v1.0b1
#
DISCID=dc0f6b10
DTITLE=Poco - Classic Poco
DYEAR=2001
DGENRE=Country
TTITLE0=Heart Of The Night
TTITLE1=Crazy Love
TTITLE2=Under The Gun
TTITLE3=Midnight Rain
TTITLE4=Little Darlin'
TTITLE5=Barbados
TTITLE6=Keep On Tryin'
TTITLE7=Makin' Love
TTITLE8=Indian Summer
TTITLE9=Widowmaker
TTITLE10=Rose Of Cimarron
TTITLE11=The Price Of Love
TTITLE12=All Alone Together
TTITLE13=Legend
TTITLE14=Spellbound
TTITLE15=The Last Goodbye
EXTD=liesbeth - country rock
EXTT0=
EXTT1=
EXTT2=
EXTT3=
EXTT4=
EXTT5=
EXTT6=
EXTT7=
EXTT8=
EXTT9=
EXTT10=
EXTT11=
EXTT12=
EXTT13=
EXTT14=
EXTT15=
PLAYORDER=
